<svg xmlns="http://www.w3.org/2000/svg" width="21.386" height="16.153" viewBox="0 0 21.386 16.153">
  <g id="friends" transform="translate(0.25 0.25)">
    <path id="Path_21468" data-name="Path 21468" d="M1315.235,154.524a2.851,2.851,0,0,0,1.069.2,2.908,2.908,0,0,0,0-5.815,2.673,2.673,0,0,0-.394.025,5.569,5.569,0,0,1,.394,2.812A5.341,5.341,0,0,1,1315.235,154.524Z" transform="translate(-1302.078 -146.729)" fill="#37dad4" stroke="#37dad4" stroke-width="0.5"/>
    <path id="Path_24" data-name="Path 24" d="M1320.281,165.277h3.359c-.425-3.821-5.451-4.3-5.451-4.3a8.694,8.694,0,0,0-.977-.092c-.327-.012,1.576,1.164,2.364,2.281A3.5,3.5,0,0,1,1320.281,165.277Z" transform="translate(-1302.783 -151.083)" fill="#37dad4" stroke="#37dad4" stroke-width="0.5"/>
    <ellipse id="Ellipse_10" data-name="Ellipse 10" cx="4.355" cy="4.355" rx="4.355" ry="4.355" transform="translate(3.817)" fill="#37DAD4" stroke="#37DAD4" stroke-width="0.5"/>
    <path id="Path_25" data-name="Path 25" d="M1305.28,162.623h-5.453c-2.207,0-5.272,1.793-5.272,4v.746h16v-.746C1310.552,164.416,1307.487,162.623,1305.28,162.623Z" transform="translate(-1294.555 -151.716)" fill="#37dad4" stroke="#37dad4" stroke-width="0.5"/>
  </g>
</svg>
