<svg xmlns="http://www.w3.org/2000/svg" width="17.558" height="12" viewBox="0 0 17.558 12">
  <path id="Icon_material-group" data-name="Icon material-group" d="M13.471,12.643a2.478,2.478,0,0,0,2.386-2.571A2.478,2.478,0,0,0,13.471,7.5a2.484,2.484,0,0,0-2.394,2.571A2.484,2.484,0,0,0,13.471,12.643Zm-6.385,0a2.478,2.478,0,0,0,2.386-2.571A2.478,2.478,0,0,0,7.087,7.5a2.484,2.484,0,0,0-2.394,2.571A2.484,2.484,0,0,0,7.087,12.643Zm0,1.714c-1.86,0-5.587,1-5.587,3V19.5H12.673V17.357C12.673,15.36,8.946,14.357,7.087,14.357Zm6.385,0c-.231,0-.495.017-.774.043a3.679,3.679,0,0,1,1.572,2.957V19.5h4.788V17.357C19.058,15.36,15.331,14.357,13.471,14.357Z" transform="translate(-1.5 -7.5)" fill="#37DAD4"/>
</svg>
