<svg xmlns="http://www.w3.org/2000/svg" width="9.527" height="12.426" viewBox="0 0 9.527 12.426">
  <path id="Icon_awesome-file-pdf" data-name="Icon awesome-file-pdf" d="M4.513,6.215a2.292,2.292,0,0,1-.05-1.138C4.672,5.077,4.652,5.973,4.513,6.215ZM4.471,7.361a11.082,11.082,0,0,1-.7,1.522,9.272,9.272,0,0,1,1.56-.532A3.163,3.163,0,0,1,4.471,7.361ZM2.136,10.39c0,.019.327-.131.866-.976A3.379,3.379,0,0,0,2.136,10.39ZM6.153,3.883H9.527v7.96a.588.588,0,0,1-.6.582H.6a.588.588,0,0,1-.6-.582V.582A.588.588,0,0,1,.6,0H5.557V3.3A.591.591,0,0,0,6.153,3.883Zm-.2,4.17A2.447,2.447,0,0,1,4.895,6.747a3.417,3.417,0,0,0,.154-1.558.625.625,0,0,0-1.186-.165,3.952,3.952,0,0,0,.2,1.869A22.574,22.574,0,0,1,3.052,8.975s0,0,0,0c-.672.337-1.826,1.08-1.352,1.65a.779.779,0,0,0,.533.243c.444,0,.886-.437,1.516-1.5A14.381,14.381,0,0,1,5.7,8.807a3.821,3.821,0,0,0,1.588.473A.627.627,0,0,0,7.78,8.227c-.345-.33-1.347-.235-1.826-.175Zm3.4-5.5L6.922.17A.6.6,0,0,0,6.5,0H6.351V3.107H9.527V2.958A.574.574,0,0,0,9.353,2.548Zm-1.838,6.2c.1-.066-.062-.289-1.062-.218C7.373,8.909,7.515,8.744,7.515,8.744Z" fill="#b3b3b3"/>
</svg>
