<svg xmlns="http://www.w3.org/2000/svg" width="16.065" height="12.852" viewBox="0 0 16.065 12.852">
  <g id="img" transform="translate(-974.411 -577.505)">
    <circle id="Ellipse_179" data-name="Ellipse 179" cx="1.607" cy="1.607" r="1.607" transform="translate(976.821 579.915)" fill="#37DAD4"/>
    <path id="Path_21376" data-name="Path 21376" d="M988.468,577.5H976.419a2.011,2.011,0,0,0-2.008,2.008v8.836a2.011,2.011,0,0,0,2.008,2.008h12.049a2.011,2.011,0,0,0,2.008-2.008v-8.836A2.011,2.011,0,0,0,988.468,577.5Zm.4,7.711-2.537-2.961a1.439,1.439,0,0,0-1.077-.494,1.4,1.4,0,0,0-1.073.507l-2.983,3.581-.972-.97a1.41,1.41,0,0,0-1.992,0l-2.217,2.216v-7.582a.4.4,0,0,1,.4-.4h12.049a.4.4,0,0,1,.4.4Z" transform="translate(0 0)" fill="#37DAD4"/>
  </g>
</svg>
