<svg xmlns="http://www.w3.org/2000/svg" width="13.775" height="11.949" viewBox="0 0 13.775 11.949">
  <g id="language" transform="translate(0 -0.742)">
    <g id="Group_2760" data-name="Group 2760" transform="translate(0 0.742)">
      <path id="Path_21770" data-name="Path 21770" d="M5.9,6.12,3.91.28A.422.422,0,0,0,3.52,0H2.4a.412.412,0,0,0-.39.28L.02,6.12A.507.507,0,0,0,0,6.25v.01a.412.412,0,0,0,.42.4H1.2a.408.408,0,0,0,.4-.3l.32-1.1H4l.32,1.1a.417.417,0,0,0,.4.3h.79a.507.507,0,0,0,.13-.02.423.423,0,0,0,.26-.52M2.31,3.96l.38-1.3c.12-.41.27-1.14.27-1.14h.02s.14.73.26,1.14l.38,1.3Z"/>
      <path id="Path_21771" data-name="Path 21771" d="M14.775,7.647a.432.432,0,0,1-.425.432h-.405a6.415,6.415,0,0,1-1.517,2.481c.3.228.607.442.926.639a.43.43,0,0,1,.15.574l-.282.495a.431.431,0,0,1-.586.154,12.2,12.2,0,0,1-1.262-.883,12.016,12.016,0,0,1-1.256.883.428.428,0,0,1-.586-.139v-.01l-.282-.494A.424.424,0,0,1,9.4,11.2c.319-.2.628-.411.926-.639a7.65,7.65,0,0,1-.745-.911.426.426,0,0,1,.106-.592.041.041,0,0,1,.021-.01l.234-.138.26-.155a.433.433,0,0,1,.57.123,6.428,6.428,0,0,0,.618.74,5.358,5.358,0,0,0,1.049-1.546H8.381a.426.426,0,0,1-.426-.425v-.57a.427.427,0,0,1,.426-.425h2.274v-.57a.427.427,0,0,1,.425-.425h.57a.426.426,0,0,1,.425.425v.57H14.35a.427.427,0,0,1,.425.425Z" transform="translate(-1 -1)"/>
      <line id="Line_1009" data-name="Line 1009" x1="10" y2="10" transform="translate(1.401 1.242)" fill="none" stroke="#000" stroke-linecap="round" stroke-miterlimit="10" stroke-width="1"/>
    </g>
  </g>
</svg>
