<svg xmlns="http://www.w3.org/2000/svg" width="16.997" height="17" viewBox="0 0 16.997 17">
  <path id="Icon_awesome-globe" data-name="Icon awesome-globe" d="M11.533,5.772C11.036,2.711,9.864.563,8.5.563S5.964,2.711,5.467,5.772ZM5.21,9.063a21.483,21.483,0,0,0,.113,2.194h6.351a21.483,21.483,0,0,0,.113-2.194,21.483,21.483,0,0,0-.113-2.194H5.323A21.483,21.483,0,0,0,5.21,9.063Zm11.129-3.29A8.518,8.518,0,0,0,10.923.919a11.568,11.568,0,0,1,1.714,4.853ZM6.073.919A8.512,8.512,0,0,0,.661,5.772h3.7A11.521,11.521,0,0,1,6.073.919Zm10.632,5.95H12.774c.072.72.113,1.457.113,2.194s-.041,1.474-.113,2.194H16.7A8.427,8.427,0,0,0,17,9.063,8.574,8.574,0,0,0,16.705,6.869ZM4.113,9.063c0-.737.041-1.474.113-2.194H.295a8.309,8.309,0,0,0,0,4.387H4.223C4.154,10.536,4.113,9.8,4.113,9.063Zm1.354,3.29c.5,3.061,1.669,5.21,3.033,5.21s2.536-2.149,3.033-5.21Zm5.46,4.853a8.526,8.526,0,0,0,5.415-4.853h-3.7a11.568,11.568,0,0,1-1.714,4.853ZM.661,12.353a8.518,8.518,0,0,0,5.415,4.853,11.568,11.568,0,0,1-1.714-4.853H.661Z" transform="translate(0 -0.563)" fill="#999da0"/>
</svg>
