<svg xmlns="http://www.w3.org/2000/svg" width="17.868" height="18.348" viewBox="0 0 17.868 18.348">
  <g id="O" transform="translate(0.762 0.75)">
    <path id="Path_21495" data-name="Path 21495" d="M16.145.5V4.578H12.067" transform="translate(-1.121 -0.5)" fill="none" stroke="#37DAD4" stroke-linecap="round" stroke-miterlimit="10" stroke-width="1.5"/>
    <path id="Path_21496" data-name="Path 21496" d="M17.82,9.686a8.13,8.13,0,0,1-.121,1.4" transform="translate(-1.464 -1.011)" fill="none" stroke="#37DAD4" stroke-miterlimit="10" stroke-width="1.5"/>
    <path id="Path_21497" data-name="Path 21497" d="M15.949,13.644A8.2,8.2,0,0,1,.96,12.478" transform="translate(-0.528 -1.143)" fill="none" stroke="#37DAD4" stroke-miterlimit="10" stroke-width="1.5" stroke-dasharray="2.69 2.69"/>
    <path id="Path_21498" data-name="Path 21498" d="M.621,11.091A8.139,8.139,0,0,1,.5,9.687" transform="translate(-0.5 -1.012)" fill="none" stroke="#37DAD4" stroke-miterlimit="10" stroke-width="1.5"/>
    <path id="Path_21499" data-name="Path 21499" d="M2.008,13.863A8.105,8.105,0,0,1,3.95,2.522a8.212,8.212,0,0,1,11.406,1.93" transform="translate(-0.5 -0.532)" fill="none" stroke="#37DAD4" stroke-miterlimit="10" stroke-width="1.5"/>
  </g>
</svg>
