<svg xmlns="http://www.w3.org/2000/svg" width="147.558" height="112.386" viewBox="0 0 147.558 112.386">
  <g id="Group_2768" data-name="Group 2768" transform="translate(409.516 -165)">
    <g id="Group_11" data-name="Group 11" transform="translate(-409.516 260.759)">
      <path id="Path_3" data-name="Path 3" d="M1438.53,1097.01c1.884,0,2.923-.867,2.923-1.754,0-1.255-1.689-1.58-3.53-1.905-1.991-.325-6.277-1.06-6.277-4.849,0-3.768,3.485-4.786,6.277-4.786a9.682,9.682,0,0,1,6.257,2.122l-1.9,2.6a7.953,7.953,0,0,0-4.482-1.624c-1,0-2.729.3-2.729,1.559,0,1.126,1.711,1.385,3.14,1.689,2.576.541,6.667.866,6.667,5.109,0,3.29-2.554,4.915-6.3,4.915a10.584,10.584,0,0,1-7.144-2.47l1.819-2.619A9.629,9.629,0,0,0,1438.53,1097.01Z" transform="translate(-1431.429 -1083.457)" fill="#37DAD4"/>
      <path id="Path_4" data-name="Path 4" d="M1448.144,1093.384v-9.4h3.421v9.4a3.66,3.66,0,1,0,7.318,0v-9.4h3.421v9.4c0,4.047-2.771,6.689-7.058,6.689C1450.937,1100.073,1448.144,1097.431,1448.144,1093.384Z" transform="translate(-1432.12 -1083.468)" fill="#37DAD4"/>
      <path id="Path_5" data-name="Path 5" d="M1479.484,1089.637c0,3.118-2.164,5.543-6.408,5.543h-2.987v4.611h-3.422v-15.826h6.431C1477.081,1083.965,1479.484,1086.5,1479.484,1089.637Zm-3.442,0a2.677,2.677,0,0,0-2.815-2.705h-3.139v5.282h3.485A2.385,2.385,0,0,0,1476.042,1089.637Z" transform="translate(-1432.885 -1083.468)" fill="#37DAD4"/>
      <path id="Path_6" data-name="Path 6" d="M1485.562,1090.46h7.577v2.987h-7.577v3.377h8.573v2.966h-11.994v-15.826h11.994v2.966h-8.573Z" transform="translate(-1433.525 -1083.468)" fill="#37DAD4"/>
      <path id="Path_7" data-name="Path 7" d="M1497.976,1099.791v-15.826h7.037a5.51,5.51,0,0,1,2.489,10.521c1.365,1.71,2.815,3.615,4.093,5.3H1507.5c-1.3-1.623-2.489-3.2-3.788-4.937h-2.338v4.937Zm7.037-7.9a2.311,2.311,0,0,0,2.316-2.425,2.272,2.272,0,0,0-2.316-2.533h-3.637v4.958Z" transform="translate(-1434.179 -1083.468)" fill="#37DAD4"/>
      <path id="Path_8" data-name="Path 8" d="M1528.824,1100.084a8.2,8.2,0,1,1,0-16.39,8.752,8.752,0,0,1,7.513,4.33l-3.183,1.234a5.533,5.533,0,0,0-4.33-2.469,5.1,5.1,0,0,0,0,10.2,5.521,5.521,0,0,0,4.33-2.512l3.183,1.235A8.7,8.7,0,0,1,1528.824,1100.084Z" transform="translate(-1435.101 -1083.456)" fill="#37DAD4"/>
      <path id="Path_9" data-name="Path 9" d="M1553.719,1099.791h-3.4v-6.148h-7.426v6.148h-3.4v-15.826h3.4v6.711h7.426v-6.711h3.4Z" transform="translate(-1435.895 -1083.468)" fill="#37DAD4"/>
      <path id="Path_10" data-name="Path 10" d="M1564.915,1083.446l8.683,16.323h-3.745l-1.256-2.425h-7.383L1560,1099.77h-3.766Zm2.036,10.976-2.036-4.135-2.013,4.135Z" transform="translate(-1436.587 -1083.446)" fill="#37DAD4"/>
      <path id="Path_11" data-name="Path 11" d="M1580.213,1086.931v12.86h-3.443v-12.86h-4.611v-2.966H1584.8v2.966Z" transform="translate(-1437.245 -1083.468)" fill="#37DAD4"/>
    </g>
    <path id="Path_12" data-name="Path 12" d="M1452.9,1085.59h-57.337l5.112,8.866h37.969a8.23,8.23,0,0,1,7.127,12.346l-9.851,17.062-9.853,17.068a8.229,8.229,0,0,1-14.256,0l-9.853-17.068-5.992-10.377h14.339l3.794,5.572,4.839,7.12,5.557-9.615,5.547-9.62h-37.8l-2.56-4.428-4.651-8.058h0a14.234,14.234,0,0,1,12.325-21.351h44.382c6.336,0,10.623,5.843,11.238,12.346Z" transform="translate(-1753.815 -908.104)" fill="#37DAD4"/>
  </g>
</svg>
