<svg xmlns="http://www.w3.org/2000/svg" width="130.669" height="100.052" viewBox="0 0 130.669 100.052">
  <g id="logo" transform="translate(0.001 0)">
    <path id="Path_21767" data-name="Path 21767" d="M25.6,100.049C9.561,100.295-1.8,87.6.237,71.679l5.49-42.865C7.767,12.889,22.325,0,38.23,0H88.1c15.905,0,27.277,12.678,25.377,28.339l-5.434,44.807,22.623,25.3Z" transform="translate(0 0)" fill="#37dad4"/>
    <path id="Path_21768" data-name="Path 21768" d="M61.571,63.428c-3.281,0-5.963-1.669-5.963-6.141,0-4.651,4.17-16.752,4.17-18.66,0-.536-.238-.955-.774-.955-4.115,0-14.247,16.038-15.68,19.853-.3.776-2.382,5.186-4.23,5.186-2.209,0-5.6-.06-5.6-1.907,0-1.729,8.94-23.31,8.94-28.973,0-.3-.117-.478-.355-.478-2.507,0-12.282,15.383-15.8,21.822-2.5,4.651-3.934,7.153-8.4,8.346a15.846,15.846,0,0,1-3.458.536c-1.312,0-1.79-.417-1.79-1.014a3.073,3.073,0,0,1,.119-.655C16.856,49,22.282,23.842,22.282,20.324c0-2.981-1.491-2.743-1.491-3.34,0-2.146,5.843-3.815,7.689-3.815a2.239,2.239,0,0,1,.655.06c1.848.357,2.386,2.743,2.386,4.591,0,5.246-5.008,19.614-5.008,19.614a.128.128,0,0,0,.121.119c.238,0,.594-.238,1.012-.834,2.92-4.651,13.233-19.555,20.446-19.555,2.8,0,3.7,2.265,3.7,4.829,0,6.915-4.291,15.619-4.291,16.274,0,.181,0,.3.06.3a.471.471,0,0,0,.24-.119c2.8-2.922,13.114-14.964,18.66-14.964,2.027,0,3.575.715,3.575,3.337C70.032,32.426,63,50.61,63,53.948c0,1.252.536,1.967,1.85,1.967,2.563,0,4.889-2.979,6.5-2.979,1.189,0,1.963,1.131,1.963,2.5,0,3.279-6.377,7.989-11.741,7.989" transform="translate(11.624 12.128)" fill="#fff"/>
  </g>
</svg>
