<svg xmlns="http://www.w3.org/2000/svg" width="12.754" height="19.929" viewBox="0 0 12.754 19.929">
  <g id="microphone" transform="translate(-78.336 0.632)">
    <path id="Path_52" data-name="Path 52" d="M91.09,210.1a.7.7,0,0,0-1.407,0,4.971,4.971,0,0,1-9.941,0,.7.7,0,0,0-1.407,0A6.338,6.338,0,0,0,84.01,216.4v1.858H81.454a.7.7,0,1,0,0,1.394h6.518a.7.7,0,1,0,0-1.394H85.417V216.4A6.338,6.338,0,0,0,91.09,210.1Z" transform="translate(0 -200.353)" fill="#b7d5f7"/>
    <path id="Path_53" data-name="Path 53" d="M135.6,0a3.689,3.689,0,0,0-3.5,3.841v6.232a3.516,3.516,0,1,0,7,.023V3.841A3.689,3.689,0,0,0,135.6,0Z" transform="translate(-50.882 -0.632)" fill="#b7d5f7"/>
  </g>
</svg>
