<svg xmlns="http://www.w3.org/2000/svg" width="18.197" height="14.982" viewBox="0 0 18.197 14.982">
  <g id="speaker" transform="matrix(0.978, -0.208, 0.208, 0.978, -1061.669, -222.25)">
    <path id="Path_21475" data-name="Path 21475" d="M1050.169,441.86v8.708a.308.308,0,0,1-.307.308l-4.957-2.362v-4.6l4.957-2.362A.308.308,0,0,1,1050.169,441.86Z" transform="translate(-48.979 -0.164)" fill="#37DAD4"/>
    <path id="Path_21476" data-name="Path 21476" d="M994.685,476.492v4.6h-2.875a.767.767,0,0,1-.767-.767v-3.066a.767.767,0,0,1,.767-.767Z" transform="translate(0 -32.644)" fill="#37DAD4"/>
    <path id="Path_21477" data-name="Path 21477" d="M1005.526,552.564l-.021,4.4,3.067-.119-1.611-4.279Z" transform="translate(-13.503 -103.574)" fill="#37DAD4"/>
    <path id="Path_21479" data-name="Path 21479" d="M0,0A5.633,5.633,0,0,1,2.018,4.258,5.6,5.6,0,0,1,.189,8.345" transform="translate(1005.694 441.894)" fill="none" stroke="#37DAD4" stroke-miterlimit="10" stroke-width="1"/>
    <path id="Path_21480" data-name="Path 21480" d="M.079,4.711A3.125,3.125,0,0,0,1.146,2.39,3.14,3.14,0,0,0,0,0" transform="translate(1002.385 443.762)" fill="none" stroke="#37DAD4" stroke-miterlimit="10" stroke-width="1"/>
    <path id="Path_21481" data-name="Path 21481" d="M0,0A4.415,4.415,0,0,1,1.59,3.343,4.387,4.387,0,0,1,.135,6.565" transform="translate(1004.061 442.809)" fill="none" stroke="#37DAD4" stroke-miterlimit="10" stroke-width="1"/>
  </g>
</svg>
