<svg xmlns="http://www.w3.org/2000/svg" width="21.916" height="16.652" viewBox="0 0 21.916 16.652">
  <g id="friends" transform="translate(0.5 0.5)">
    <path id="Path_21469" data-name="Path 21469" d="M1315.909,148.937a2.673,2.673,0,0,1,.394-.025,2.908,2.908,0,0,1,0,5.815,2.851,2.851,0,0,1-1.069-.2" transform="translate(-1302.078 -146.729)" fill="none" stroke="#4c4f50" stroke-width="1"/>
    <path id="Path_24" data-name="Path 24" d="M1317.233,160.882a8.7,8.7,0,0,1,.977.092s5.026.483,5.451,4.3H1320.3" transform="translate(-1302.804 -151.083)" fill="none" stroke="#4c4f50" stroke-width="1"/>
    <ellipse id="Ellipse_10" data-name="Ellipse 10" cx="4.355" cy="4.355" rx="4.355" ry="4.355" transform="translate(3.817)" fill="none" stroke="#4c4f50" stroke-width="1"/>
    <path id="Path_25" data-name="Path 25" d="M1305.28,162.623h-5.453c-2.207,0-5.272,1.793-5.272,4v.746h16v-.746C1310.552,164.416,1307.487,162.623,1305.28,162.623Z" transform="translate(-1294.555 -151.716)" fill="none" stroke="#4c4f50" stroke-width="1"/>
  </g>
</svg>
