<svg xmlns="http://www.w3.org/2000/svg" xmlns:xlink="http://www.w3.org/1999/xlink" width="57" height="57" viewBox="0 0 57 57">
  <defs>
    <linearGradient id="linear-gradient" x1="0.5" x2="0.5" y2="1" gradientUnits="objectBoundingBox">
      <stop offset="0" stop-color="#37DAD4"/>
      <stop offset="1" stop-color="#613df7"/>
    </linearGradient>
  </defs>
  <g id="O" transform="translate(-34 -29)">
    <rect id="Rectangle_651" data-name="Rectangle 651" width="57" height="57" rx="28.5" transform="translate(34 29)" fill="url(#linear-gradient)"/>
    <path id="Path_12" data-name="Path 12" d="M1415.074,1078.823h-26.259l2.341,4.06h17.389a3.769,3.769,0,0,1,3.264,5.654l-4.511,7.814-4.512,7.816a3.769,3.769,0,0,1-6.529,0l-4.512-7.816L1389,1091.6h6.567l1.738,2.552,2.216,3.261,2.545-4.4,2.541-4.406H1387.3l-1.173-2.028-2.13-3.69h0a6.519,6.519,0,0,1,5.645-9.778h20.326c2.9,0,4.865,2.676,5.146,5.654Z" transform="translate(-1336.111 -1031.104)" fill="#fff"/>
  </g>
</svg>
