<svg xmlns="http://www.w3.org/2000/svg" xmlns:xlink="http://www.w3.org/1999/xlink" width="374" height="148.62" viewBox="0 0 374 148.62">
  <defs>
    <linearGradient id="linear-gradient" x1="0.247" y1="0.065" x2="0.821" y2="0.904" gradientUnits="objectBoundingBox">
      <stop offset="0" stop-color="#fff"/>
      <stop offset="1" stop-color="#f8ca05"/>
    </linearGradient>
  </defs>
  <g id="Group_2790" data-name="Group 2790" transform="translate(142.903 40.192)">
    <path id="Path_21781" data-name="Path 21781" d="M379.411,102.016c-18.964,21.992-74.164,50.475-134.975,62.564h-95.89C87.738,152.491,32.54,124.007,13.575,102.016l-3.116-3.561c-1.739,3.328-1.164,7.014,1.61,10.008,20.375,21.986,76.063,48.574,135.151,60.224l.43.084h97.682l.43-.084c58.763-11.584,114.381-37.941,134.813-59.855,2.985-3.2,3.715-7.123,1.954-10.712Z" transform="translate(-152.376 -124.84)" fill="#f8b600"/>
    <g id="Group_2788" data-name="Group 2788" transform="translate(-17.902 -20.234)">
      <rect id="Rectangle_1675" data-name="Rectangle 1675" width="128.662" height="128.662" rx="64" transform="translate(-0.001 0)" fill="url(#linear-gradient)"/>
      <g id="Path_21785" data-name="Path 21785" transform="translate(-128.539 -134.062)" fill="none" stroke-miterlimit="10">
        <path d="M246.513,198.388a53.642,53.642,0,1,1-53.643-53.643A53.643,53.643,0,0,1,246.513,198.388Z" stroke="none"/>
        <path d="M 192.8700561523438 144.7450256347656 C 163.2441864013672 144.7450256347656 139.2280578613281 168.7621459960938 139.2280578613281 198.3880004882812 C 139.2280578613281 228.0138549804688 163.2441864013672 252.0309753417969 192.8700561523438 252.0309753417969 C 222.4969024658203 252.0309753417969 246.5128784179688 228.0138549804688 246.5128784179688 198.3880004882812 C 246.5128784179688 168.7621459960938 222.4969024658203 144.7450256347656 192.8700561523438 144.7450256347656 M 192.8700561523438 139.7450256347656 C 200.7847595214844 139.7450256347656 208.4653015136719 141.2962493896484 215.6983642578125 144.3556060791016 C 219.1742553710938 145.8258056640625 222.5264129638672 147.6452178955078 225.6616516113281 149.7633972167969 C 228.7658081054688 151.8605499267578 231.6846618652344 154.2688293457031 234.3371124267578 156.9213256835938 C 236.9895324707031 159.5738067626953 239.3977508544922 162.49267578125 241.4948577880859 165.5968475341797 C 243.6129608154297 168.7321014404297 245.4323577880859 172.0842437744141 246.9025115966797 175.5601501464844 C 249.9617309570312 182.7931213378906 251.5128784179688 190.4735260009766 251.5128784179688 198.3880004882812 C 251.5128784179688 206.3024749755859 249.9617309570312 213.9828796386719 246.9025115966797 221.2158508300781 C 245.4323577880859 224.6917572021484 243.6129608154297 228.0438995361328 241.4948577880859 231.1791534423828 C 239.3977508544922 234.2833251953125 236.9895324707031 237.2021942138672 234.3371124267578 239.8546752929688 C 231.6846618652344 242.5071716308594 228.7658081054688 244.9154510498047 225.6616516113281 247.0126037597656 C 222.5264129638672 249.1307830810547 219.1742553710938 250.9501953125 215.6983642578125 252.4203948974609 C 208.4653015136719 255.4797515869141 200.7847595214844 257.0309753417969 192.8700561523438 257.0309753417969 C 184.9555816650391 257.0309753417969 177.2752075195312 255.4797515869141 170.0422821044922 252.4203948974609 C 166.56640625 250.9501953125 163.2143402099609 249.1307525634766 160.0791320800781 247.0126037597656 C 156.9750061035156 244.9154205322266 154.0562133789062 242.5071563720703 151.4037780761719 239.8546752929688 C 148.7513580322266 237.2021942138672 146.3431549072266 234.2833251953125 144.2460632324219 231.1791229248047 C 142.1279907226562 228.0438690185547 140.3085784912109 224.6917572021484 138.8384399414062 221.2158508300781 C 135.7792053222656 213.9828491210938 134.2280578613281 206.3024444580078 134.2280578613281 198.3880004882812 C 134.2280578613281 190.4735565185547 135.7792053222656 182.7931518554688 138.8384399414062 175.5601501464844 C 140.3085784912109 172.0842437744141 142.1279907226562 168.7321319580078 144.2460632324219 165.5968780517578 C 146.3431549072266 162.49267578125 148.7513580322266 159.5738067626953 151.4037780761719 156.9213256835938 C 154.0562133789062 154.2688446044922 156.9750061035156 151.8605804443359 160.0791320800781 149.7633972167969 C 163.2143402099609 147.6452484130859 166.56640625 145.8258056640625 170.0422821044922 144.3556060791016 C 177.2752075195312 141.2962493896484 184.9555816650391 139.7450256347656 192.8700561523438 139.7450256347656 Z" stroke="none" fill="#ffc010"/>
      </g>
    </g>
    <text id="Open" transform="translate(43.597 52.599)" fill="#c49000" font-size="28" font-family="Poppins-Bold, Poppins" font-weight="700"><tspan x="-37.842" y="0">OPEN</tspan></text>
    <path id="Path_21791" data-name="Path 21791" d="M35.373,121.256A64.024,64.024,0,0,1,46.8,2.337C86.2,49.64,44.2,125.623,35.373,121.256Z" transform="matrix(0.891, 0.454, -0.454, 0.891, 18.128, -42.275)" fill="rgba(255,255,255,0.23)"/>
  </g>
</svg>
