<svg xmlns="http://www.w3.org/2000/svg" width="374" height="102.549" viewBox="0 0 374 102.549">
  <g id="Group_2825" data-name="Group 2825" transform="translate(0 -8.824)">
    <path id="Path_21792" data-name="Path 21792" d="M0,0H374V57.637S328.709,78.761,269.326,89.489C222.892,98.541,188.1,102.078,158.58,99.84c-12.511-.948-24.5-5.495-35.472-6.989C43.556,82.017,0,57.637,0,57.637Z" transform="translate(0 8.824)" fill="#f72600"/>
    <path id="Path_21781" data-name="Path 21781" d="M379.411,100.813c-18.964,15.2-104.164,34.9-164.975,43.253h-35.89c-60.807-8.358-146.006-28.05-164.97-43.253l-3.116-2.462c-1.739,2.3-1.164,4.849,1.61,6.919,20.375,15.2,106.063,33.581,165.151,41.635l.43.058h67.682l-29.57-.058c58.763-8.009,144.381-26.23,164.813-41.38,2.985-2.213,3.715-4.924,1.954-7.405Z" transform="translate(-9.473 -35.59)" fill="#fa934c"/>
  </g>
</svg>
