<svg xmlns="http://www.w3.org/2000/svg" width="30.385" height="38" viewBox="0 0 30.385 38">
  <g id="ico" transform="translate(-1.075 1.867)">
    <g id="Group_2772" data-name="Group 2772" transform="translate(1.075 1.262)">
      <path id="Path_21779" data-name="Path 21779" d="M36.376,34.872H15.139A4.475,4.475,0,0,1,10.565,30.5V4.369A4.475,4.475,0,0,1,15.139,0H36.376a4.475,4.475,0,0,1,4.574,4.369V30.5a4.475,4.475,0,0,1-4.574,4.369" transform="translate(-10.565)" fill="#f72603"/>
    </g>
    <g id="Group_2774" data-name="Group 2774" transform="translate(1.078 -1.867)">
      <path id="Path_21789" data-name="Path 21789" d="M2.386,0C1.068,0,0,.612,0,1.368v9.739c1.581,1.575,6.147,3.606,11.238,4.462h7.9c5.092-.856,9.657-2.886,11.238-4.462V1.368C30.381.612,29.313,0,28,0Z" transform="translate(30.381 15.569) rotate(180)" fill="#c70000"/>
      <path id="Path_21788" data-name="Path 21788" d="M35.018,8.937H14.9c-2.393,0-4.333-.5-4.333-1.12V1.12C10.565.5,12.5,0,14.9,0h20.12c2.393,0,4.333.5,4.333,1.12v6.7c0,.618-1.94,1.12-4.333,1.12" transform="translate(-9.769 5.652)" fill="#fff"/>
      <path id="Path_21780" data-name="Path 21780" d="M12.994,0c-1.318,0-2.386.612-2.386,1.368V8.558c1.581,1.575,6.147,3.606,11.238,4.462h7.9c5.092-.856,9.657-2.886,11.238-4.462V1.367C40.989.611,39.921,0,38.6,0Z" transform="translate(-10.608 9.59)" fill="#f72603"/>
    </g>
  </g>
</svg>
