<svg xmlns="http://www.w3.org/2000/svg" width="12.11" height="17.422" viewBox="0 0 12.11 17.422">
  <g id="ico" transform="translate(-6.21 -827.444)">
    <g id="Group_2755" data-name="Group 2755" transform="translate(6.21 827.444)">
      <path id="Path_21760" data-name="Path 21760" d="M8.281,16.278H3.829A3.329,3.329,0,0,1,.5,12.95V7.482a1.109,1.109,0,0,1,1.11-1.11H10.5a1.109,1.109,0,0,1,1.11,1.11V12.95A3.329,3.329,0,0,1,8.281,16.278Z" transform="translate(0 0.643)" fill="none" stroke="#000" stroke-miterlimit="10" stroke-width="1"/>
      <path id="Path_21761" data-name="Path 21761" d="M1.882,7.015V4.5a4,4,0,1,1,8.009,0V7.015" transform="translate(0.151 0)" fill="none" stroke="#000" stroke-miterlimit="10" stroke-width="1"/>
      <path id="Path_21762" data-name="Path 21762" d="M6.44,9.573a.778.778,0,1,1-.779-.779A.778.778,0,0,1,6.44,9.573Z" transform="translate(0.48 0.909)" fill="none" stroke="#000" stroke-miterlimit="10" stroke-width="1.311"/>
      <line id="Line_990" data-name="Line 990" y1="2.407" transform="translate(6.142 11.447)" fill="none" stroke="#000" stroke-linecap="round" stroke-miterlimit="10" stroke-width="1"/>
    </g>
  </g>
</svg>
