<svg xmlns="http://www.w3.org/2000/svg" width="30" height="30" viewBox="0 0 30 30">
  <g id="Icon_ionic-ios-pause" data-name="Icon ionic-ios-pause" transform="translate(-3.5 1.75)">
    <circle id="Ellipse_180" data-name="Ellipse 180" cx="14.5" cy="14.5" r="14.5" transform="translate(4 -1.25)" fill="none" stroke="#fff" stroke-width="1"/>
    <path id="Union_3" data-name="Union 3" d="M6903.246-5155.75a.311.311,0,0,1-.31-.312v-11.875a.311.311,0,0,1,.31-.312h2.444a.311.311,0,0,1,.31.312v11.875a.311.311,0,0,1-.31.312Zm-5.936,0a.311.311,0,0,1-.311-.312v-11.875a.311.311,0,0,1,.311-.312h2.444a.311.311,0,0,1,.31.312v11.875a.311.311,0,0,1-.31.312Z" transform="translate(-6883 5175)" fill="#fff"/>
  </g>
</svg>
