<svg xmlns="http://www.w3.org/2000/svg" width="80" height="80" viewBox="0 0 80 80">
  <g id="desktopIcon" transform="translate(-163 -244)">
    <circle id="Ellipse_219" data-name="Ellipse 219" cx="40" cy="40" r="40" transform="translate(163 244)" fill="#f0f3f4"/>
    <path id="desktop" d="M2.562,5A2.517,2.517,0,0,0,0,7.562V32.327a2.517,2.517,0,0,0,2.562,2.562H40.136A2.517,2.517,0,0,0,42.7,32.327V7.562A2.517,2.517,0,0,0,40.136,5Zm0,1.708H40.136a.805.805,0,0,1,.854.854V28.057H1.708V7.562A.805.805,0,0,1,2.562,6.708ZM21.349,30.539a.934.934,0,1,1-.934.934A.937.937,0,0,1,21.349,30.539ZM17.159,36.6,17,37.8a1.727,1.727,0,0,1-1.628,1.361h-.854a.854.854,0,1,0,0,1.708H28.181a.854.854,0,1,0,0-1.708h-.854A1.727,1.727,0,0,1,25.7,37.8l-.16-1.2Z" transform="translate(182 262)" fill="#999da0"/>
  </g>
</svg>
