<svg id="Icon_awesome-file-pdf" data-name="Icon awesome-file-pdf" xmlns="http://www.w3.org/2000/svg" width="23" height="30" viewBox="0 0 23 30">
  <path id="Icon_awesome-file-pdf-2" data-name="Icon awesome-file-pdf" d="M10.9,15.006a5.534,5.534,0,0,1-.12-2.748C11.278,12.258,11.231,14.42,10.9,15.006Zm-.1,2.766a26.754,26.754,0,0,1-1.7,3.674,22.386,22.386,0,0,1,3.767-1.283A7.637,7.637,0,0,1,10.793,17.772ZM5.157,25.084c0,.047.791-.316,2.09-2.355A8.157,8.157,0,0,0,5.157,25.084Zm9.7-15.709H23V28.594A1.419,1.419,0,0,1,21.563,30H1.438A1.419,1.419,0,0,1,0,28.594V1.406A1.419,1.419,0,0,1,1.438,0H13.417V7.969A1.426,1.426,0,0,0,14.854,9.375Zm-.479,10.066a5.907,5.907,0,0,1-2.558-3.152,8.249,8.249,0,0,0,.371-3.762,1.508,1.508,0,0,0-2.863-.4c-.3,1.072-.024,2.584.485,4.512a54.5,54.5,0,0,1-2.444,5.027c-.006,0-.006.006-.012.006-1.623.814-4.408,2.607-3.264,3.984a1.88,1.88,0,0,0,1.288.586c1.072,0,2.138-1.055,3.66-3.621a34.721,34.721,0,0,1,4.732-1.359A9.226,9.226,0,0,0,17.6,22.406a1.513,1.513,0,0,0,1.18-2.543c-.833-.8-3.252-.568-4.408-.422ZM22.581,6.152,16.711.41A1.453,1.453,0,0,0,15.693,0h-.359V7.5H23V7.143A1.386,1.386,0,0,0,22.581,6.152ZM18.143,21.111c.246-.158-.15-.7-2.564-.527C17.8,21.51,18.143,21.111,18.143,21.111Z" fill="#fff"/>
</svg>
