<svg xmlns="http://www.w3.org/2000/svg" width="14.364" height="13.125" viewBox="0 0 14.364 13.125">
  <path id="Path_21433" data-name="Path 21433" d="M462.571,111.723H452.284a2.038,2.038,0,0,0-2.039,2.038v9.048a2.039,2.039,0,0,0,2.039,2.038h10.287a2.038,2.038,0,0,0,2.038-2.038v-9.048A2.038,2.038,0,0,0,462.571,111.723ZM460,113.617a1.571,1.571,0,1,1-1.571,1.571A1.571,1.571,0,0,1,460,113.617Zm1.949,9.792h-9.635a.346.346,0,0,1-.294-.529l1.746-2.808,1.78-2.864a.347.347,0,0,1,.589,0l1.78,2.864.753,1.211.041-.07.982-1.684a.346.346,0,0,1,.6,0l.982,1.684.977,1.675A.346.346,0,0,1,461.95,123.409Z" transform="translate(-450.245 -111.723)" fill="#b3b3b3"/>
</svg>
