<svg xmlns="http://www.w3.org/2000/svg" width="24.584" height="24.584" viewBox="0 0 24.584 24.584">
  <g id="pin_chat" data-name="pin chat" transform="translate(23.769 5.92) rotate(90)">
    <path id="Path_21785" data-name="Path 21785" d="M11.572,10.989a1.76,1.76,0,0,1-.05.4H6.791v5.6L5.786,20l-1-3.024V11.391H.05a1.76,1.76,0,0,1-.05-.4C0,9.553,1.678,8.327,4.008,7.906V3.787A4.172,4.172,0,0,1,1.607,0H9.965a4.172,4.172,0,0,1-2.4,3.787V7.906C9.895,8.327,11.572,9.553,11.572,10.989Z" transform="translate(-5.188 8.101) rotate(-45)" fill="none" stroke="#37DAD4" stroke-miterlimit="10" stroke-width="1.036"/>
  </g>
</svg>
