<svg xmlns="http://www.w3.org/2000/svg" width="8.44" height="13.188" viewBox="0 0 8.44 13.188">
  <g id="microphone" transform="translate(-78.336 0.632)">
    <path id="Path_52" data-name="Path 52" d="M86.776,209.869a.465.465,0,0,0-.931,0,3.289,3.289,0,0,1-6.578,0,.465.465,0,0,0-.931,0,4.194,4.194,0,0,0,3.755,4.165v1.23H80.4a.461.461,0,1,0,0,.922h4.313a.461.461,0,1,0,0-.922H83.021v-1.23A4.194,4.194,0,0,0,86.776,209.869Z" transform="translate(0 -203.63)" fill="#bedcff"/>
    <path id="Path_53" data-name="Path 53" d="M134.648,0A2.551,2.551,0,0,0,132.1,2.541V6.665a2.552,2.552,0,0,0,5.1.015V2.541A2.551,2.551,0,0,0,134.648,0Z" transform="translate(-52.092 -0.632)" fill="#bedcff"/>
  </g>
</svg>
