<svg xmlns="http://www.w3.org/2000/svg" width="12.021" height="14.523" viewBox="0 0 12.021 14.523">
  <g id="ico" transform="translate(0)">
    <path id="Path_21744" data-name="Path 21744" d="M12.02,2.463V1.619A1.49,1.49,0,0,0,10.331,0H1.718A1.49,1.49,0,0,0,.029,1.619v.844L5.964,5.422Z" transform="translate(-0.029 0)" fill="#37DAD4"/>
    <path id="Path_21745" data-name="Path 21745" d="M5.983,8.693,0,5.862l.016,9.255A1.889,1.889,0,0,0,1.71,17.15h8.612a1.887,1.887,0,0,0,1.688-2.038l.011-9.32Zm1.8,3.905v.754H6.42v.557H7.781v.754H6.42v.667H5.666v-.667H4.306v-.754H5.666v-.557H4.306V12.6H5.666V12.04l-1.552-2.2.617-.432,1.284,1.82,1.268-1.82.623.432L6.42,11.975V12.6Z" transform="translate(0 -2.627)" fill="#37DAD4"/>
  </g>
</svg>
