<svg xmlns="http://www.w3.org/2000/svg" width="15.629" height="16.105" viewBox="0 0 15.629 16.105">
  <g id="security_question_" data-name="security question " transform="translate(-1 0)">
    <g id="Group_2756" data-name="Group 2756" transform="translate(1)">
      <path id="Path_21763" data-name="Path 21763" d="M10.85,11.692a7.136,7.136,0,0,1-4.83,3.9A7.114,7.114,0,0,1,.5,8.642V3.292H.57A7.124,7.124,0,0,0,6.01.772a7.124,7.124,0,0,0,5.44,2.52h.08V4.585" fill="none" stroke="#000" stroke-miterlimit="10" stroke-width="1"/>
      <line id="Line_991" data-name="Line 991" y2="2.121" transform="translate(6.352 7.186)" fill="none" stroke="#000" stroke-linecap="round" stroke-miterlimit="10" stroke-width="0.53"/>
      <line id="Line_992" data-name="Line 992" x1="2.121" transform="translate(5.291 8.246)" fill="none" stroke="#000" stroke-linecap="round" stroke-miterlimit="10" stroke-width="0.53"/>
      <line id="Line_993" data-name="Line 993" x2="1.5" y2="1.5" transform="translate(5.602 7.496)" fill="none" stroke="#000" stroke-linecap="round" stroke-miterlimit="10" stroke-width="0.53"/>
      <line id="Line_994" data-name="Line 994" x1="1.5" y2="1.5" transform="translate(5.602 7.496)" fill="none" stroke="#000" stroke-linecap="round" stroke-miterlimit="10" stroke-width="0.53"/>
      <line id="Line_995" data-name="Line 995" y2="2.121" transform="translate(9.471 7.186)" fill="none" stroke="#000" stroke-linecap="round" stroke-miterlimit="10" stroke-width="0.53"/>
      <line id="Line_996" data-name="Line 996" x1="2.121" transform="translate(8.411 8.246)" fill="none" stroke="#000" stroke-linecap="round" stroke-miterlimit="10" stroke-width="0.53"/>
      <line id="Line_997" data-name="Line 997" x2="1.5" y2="1.5" transform="translate(8.721 7.496)" fill="none" stroke="#000" stroke-linecap="round" stroke-miterlimit="10" stroke-width="0.53"/>
      <line id="Line_998" data-name="Line 998" x1="1.5" y2="1.5" transform="translate(8.721 7.496)" fill="none" stroke="#000" stroke-linecap="round" stroke-miterlimit="10" stroke-width="0.53"/>
      <line id="Line_999" data-name="Line 999" y2="2.121" transform="translate(12.591 7.186)" fill="none" stroke="#000" stroke-linecap="round" stroke-miterlimit="10" stroke-width="0.53"/>
      <line id="Line_1000" data-name="Line 1000" x1="2.121" transform="translate(11.53 8.246)" fill="none" stroke="#000" stroke-linecap="round" stroke-miterlimit="10" stroke-width="0.53"/>
      <line id="Line_1001" data-name="Line 1001" x2="1.5" y2="1.5" transform="translate(11.841 7.496)" fill="none" stroke="#000" stroke-linecap="round" stroke-miterlimit="10" stroke-width="0.53"/>
      <line id="Line_1002" data-name="Line 1002" x1="1.5" y2="1.5" transform="translate(11.841 7.496)" fill="none" stroke="#000" stroke-linecap="round" stroke-miterlimit="10" stroke-width="0.53"/>
      <path id="Rectangle_1663" data-name="Rectangle 1663" d="M1.651,0h8.3A1.65,1.65,0,0,1,11.6,1.65V3.587a1.65,1.65,0,0,1-1.65,1.65h-8.3A1.651,1.651,0,0,1,0,3.586V1.651A1.651,1.651,0,0,1,1.651,0Z" transform="translate(3.67 5.628)" fill="none" stroke="#000" stroke-linecap="round" stroke-miterlimit="10" stroke-width="0.71"/>
    </g>
  </g>
</svg>
