<svg xmlns="http://www.w3.org/2000/svg" width="17.562" height="14.434" viewBox="0 0 17.562 14.434">
  <g id="signature" transform="translate(-51.489 -758.497)">
    <rect id="Rectangle_1582" data-name="Rectangle 1582" width="16.654" height="13.526" rx="1.438" transform="translate(51.943 758.951)" fill="none" stroke="#000" stroke-miterlimit="10" stroke-width="0.908"/>
    <path id="Path_21717" data-name="Path 21717" d="M54.391,762.664a3.739,3.739,0,0,1,2.531-1.2c1.153.013,1.374.779,2.617.9,1.525.15,2.059-.92,3.709-.936a4.57,4.57,0,0,1,2.512.8" transform="translate(0.339 0.343)" fill="none" stroke="#000" stroke-miterlimit="10" stroke-width="1"/>
    <path id="Path_21718" data-name="Path 21718" d="M54.391,765.743a3.739,3.739,0,0,1,2.531-1.2c1.153.011,1.374.779,2.617.9,1.525.15,2.059-.92,3.709-.936a4.562,4.562,0,0,1,2.512.8" transform="translate(0.339 0.77)" fill="none" stroke="#000" stroke-miterlimit="10" stroke-width="1"/>
    <path id="Path_21719" data-name="Path 21719" d="M54.391,768.546a3.739,3.739,0,0,1,2.531-1.2c1.153.011,1.374.777,2.617.9,1.525.151,2.059-.92,3.709-.936a4.57,4.57,0,0,1,2.512.8" transform="translate(0.339 1.157)" fill="none" stroke="#000" stroke-miterlimit="10" stroke-width="1"/>
  </g>
</svg>
