<svg xmlns="http://www.w3.org/2000/svg" width="13.998" height="13.998" viewBox="0 0 13.998 13.998">
  <path id="silent" d="M.16,13.065l12.9-12.9a.547.547,0,0,1,.773.773L10.905,3.867a4.275,4.275,0,0,1,.359,1.711V7.492a1.855,1.855,0,0,0,1.171,1.689.537.537,0,0,1,.36.514,2.988,2.988,0,0,1-.547,1.678,2.3,2.3,0,0,1-1.914.985H8.639a1.64,1.64,0,0,1-3.281,0H3.664a2.451,2.451,0,0,1-1.035-.215l-1.7,1.7a.547.547,0,0,1-.773-.773ZM7,12.9a.547.547,0,0,0,.547-.547H6.452A.547.547,0,0,0,7,12.9Zm-3.335-1.64h6.67a1.4,1.4,0,0,0,1.332-1.247,3.287,3.287,0,0,1-.549-.4,2.791,2.791,0,0,1-.947-2.128V5.578a3.176,3.176,0,0,0-.119-.858L3.515,11.257C3.563,11.262,3.613,11.265,3.664,11.265ZM9.136,2.486a.547.547,0,0,0-.247-.733,4.188,4.188,0,0,0-1.316-.4v-.8a.547.547,0,0,0-1.094,0v.8A4.291,4.291,0,0,0,2.707,5.578V7.492a1.856,1.856,0,0,1-1.173,1.69h0v0a.547.547,0,1,0,.375,1.025,3.13,3.13,0,0,0,.941-.588A2.791,2.791,0,0,0,3.8,7.492V5.578A3.192,3.192,0,0,1,6.946,2.407l.038,0,.043,0h.026a3.108,3.108,0,0,1,1.35.326.546.546,0,0,0,.733-.247Z" transform="translate(0 -0.001)" fill="#b3b3b3"/>
</svg>
