<svg xmlns="http://www.w3.org/2000/svg" xmlns:xlink="http://www.w3.org/1999/xlink" width="434" height="768" viewBox="0 0 434 768">
  <defs>
    <linearGradient id="linear-gradient" x1="0.5" x2="0.5" y2="1" gradientUnits="objectBoundingBox">
      <stop offset="0" stop-color="#37DAD4"/>
      <stop offset="0.847" stop-color="#37DAD4"/>
      <stop offset="1" stop-color="#37DAD4"/>
    </linearGradient>
  </defs>
  <g id="Group_511" data-name="Group 511" transform="translate(23.031 17.542)">
    <g id="Group_11" data-name="Group 11" transform="translate(80.484 405.317)">
      <path id="Path_27" data-name="Path 27" d="M0,0H434V768H0Z" transform="translate(-103.515 -422.859)" fill="url(#linear-gradient)"/>
      <path id="Path_3" data-name="Path 3" d="M1442.352,1104.165c2.9,0,4.5-1.333,4.5-2.7,0-1.93-2.6-2.43-5.43-2.93-3.063-.5-9.656-1.631-9.656-7.458,0-5.8,5.36-7.362,9.656-7.362a14.894,14.894,0,0,1,9.625,3.263l-2.93,4a12.231,12.231,0,0,0-6.894-2.5c-1.532,0-4.2.466-4.2,2.4,0,1.732,2.632,2.131,4.829,2.6,3.962.832,10.256,1.332,10.256,7.858,0,5.061-3.929,7.561-9.69,7.561a16.279,16.279,0,0,1-10.989-3.8l2.8-4.028A14.811,14.811,0,0,0,1442.352,1104.165Z" transform="translate(-1431.429 -1083.318)" fill="#fff"/>
      <path id="Path_4" data-name="Path 4" d="M1448.144,1098.441v-14.453h5.262v14.453a5.629,5.629,0,1,0,11.255,0v-14.453h5.262v14.453c0,6.226-4.262,10.29-10.856,10.29C1452.44,1108.73,1448.144,1104.666,1448.144,1098.441Z" transform="translate(-1423.496 -1083.189)" fill="#fff"/>
      <path id="Path_5" data-name="Path 5" d="M1486.381,1092.689c0,4.8-3.328,8.526-9.856,8.526h-4.595v7.093h-5.263v-24.343h9.892C1482.686,1083.965,1486.381,1087.861,1486.381,1092.689Zm-5.293,0a4.118,4.118,0,0,0-4.329-4.161h-4.828v8.125h5.36A3.669,3.669,0,0,0,1481.088,1092.689Z" transform="translate(-1414.705 -1083.2)" fill="#fff"/>
      <path id="Path_6" data-name="Path 6" d="M1487.4,1093.956h11.655v4.595H1487.4v5.2h13.188v4.563h-18.449v-24.343h18.449v4.562H1487.4Z" transform="translate(-1407.361 -1083.2)" fill="#fff"/>
      <path id="Path_7" data-name="Path 7" d="M1497.976,1108.308v-24.343H1508.8c5.227,0,8.792,3.464,8.792,8.458a8.182,8.182,0,0,1-4.964,7.725c2.1,2.631,4.33,5.561,6.3,8.159h-6.3c-2-2.5-3.828-4.929-5.826-7.593h-3.6v7.593Zm10.824-12.155a3.555,3.555,0,0,0,3.563-3.729c0-1.265-.466-3.9-3.563-3.9h-5.594v7.625Z" transform="translate(-1399.845 -1083.2)" fill="#fff"/>
      <path id="Path_8" data-name="Path 8" d="M1533.415,1108.9a12.9,12.9,0,0,1-13.121-12.623c0-6.926,5.894-12.587,13.121-12.587a13.461,13.461,0,0,1,11.557,6.661l-4.9,1.9a8.51,8.51,0,0,0-6.661-3.8,7.843,7.843,0,0,0,0,15.686,8.492,8.492,0,0,0,6.661-3.864l4.9,1.9A13.382,13.382,0,0,1,1533.415,1108.9Z" transform="translate(-1389.253 -1083.328)" fill="#fff"/>
      <path id="Path_9" data-name="Path 9" d="M1561.374,1108.308h-5.229v-9.457h-11.422v9.457h-5.229v-24.343h5.229v10.322h11.422v-10.322h5.229Z" transform="translate(-1380.14 -1083.2)" fill="#fff"/>
      <path id="Path_10" data-name="Path 10" d="M1569.587,1083.446l13.356,25.108h-5.761l-1.932-3.73h-11.356l-1.866,3.73h-5.794Zm3.131,16.883-3.131-6.36-3.1,6.36Z" transform="translate(-1372.195 -1083.446)" fill="#fff"/>
      <path id="Path_11" data-name="Path 11" d="M1584.548,1088.527v19.781h-5.3v-19.781h-7.093v-4.562h19.447v4.562Z" transform="translate(-1364.637 -1083.2)" fill="#fff"/>
    </g>
    <path id="Path_12" data-name="Path 12" d="M1490.464,1092.31H1402.27l7.863,13.637h58.4a12.659,12.659,0,0,1,10.963,18.99l-15.152,26.244-15.155,26.253a12.657,12.657,0,0,1-21.928,0l-15.155-26.253-9.217-15.963h22.055l5.836,8.57,7.443,10.951,8.548-14.789,8.533-14.8h-58.137l-3.939-6.812-7.154-12.395h0a21.894,21.894,0,0,1,18.958-32.842H1473.3c9.746,0,16.339,8.988,17.285,18.99Z" transform="translate(-1242.929 -815.081)" fill="#fff"/>
    <text id="Welcome_to_Super_Chat" data-name="Welcome M Chat" transform="translate(54.969 424.458)" fill="#37DAD4" font-size="24" font-family="Rubik-Medium, Rubik" font-weight="500" opacity="0"><tspan x="0" y="0">Welcome to M Chat</tspan></text>
  </g>
</svg>
