<svg xmlns="http://www.w3.org/2000/svg" width="15.87" height="17.091" viewBox="0 0 15.87 17.091">
  <g id="trash" transform="translate(-17.066)">
    <path id="Path_882" data-name="Path 882" d="M32.326,2.442H28.053v-.61A1.831,1.831,0,0,0,26.222,0H23.78a1.831,1.831,0,0,0-1.831,1.831v.61H17.676a.61.61,0,1,0,0,1.221h.663l1.168,12.874a.61.61,0,0,0,.61.555h9.766a.61.61,0,0,0,.61-.555L31.662,3.662h.664a.61.61,0,1,0,0-1.221Zm-9.156-.61a.61.61,0,0,1,.61-.61h2.442a.61.61,0,0,1,.61.61v.61H23.17v-.61ZM29.327,15.87H20.675L19.569,3.662H30.437Z" fill="#ff3939"/>
    <path id="Path_883" data-name="Path 883" d="M138.509,145.08v0l-.673-8.051a.648.648,0,0,0-.72-.534.615.615,0,0,0-.625.616l.673,8.051a.639.639,0,0,0,.673.534h.048A.613.613,0,0,0,138.509,145.08Z" transform="translate(-115.209 -131.293)" fill="#ff3939"/>
    <path id="Path_884" data-name="Path 884" d="M222.539,136.533a.63.63,0,0,0-.673.575v8.051a.681.681,0,0,0,1.345,0v-8.051A.63.63,0,0,0,222.539,136.533Z" transform="translate(-197.538 -131.334)" fill="#ff3939"/>
    <path id="Path_885" data-name="Path 885" d="M291.481,136.491a.648.648,0,0,0-.72.534l-.673,8.051a.612.612,0,0,0,.622.616h.051a.639.639,0,0,0,.673-.534l.673-8.051A.615.615,0,0,0,291.481,136.491Z" transform="translate(-263.386 -131.292)" fill="#ff3939"/>
  </g>
</svg>
