<svg xmlns="http://www.w3.org/2000/svg" width="20.467" height="22.042" viewBox="0 0 20.467 22.042">
  <g id="trash" transform="translate(-17.066)">
    <path id="Path_882" data-name="Path 882" d="M36.746,3.149h-5.51V2.362A2.362,2.362,0,0,0,28.874,0H25.725a2.362,2.362,0,0,0-2.362,2.362v.787h-5.51a.787.787,0,1,0,0,1.574h.856l1.506,16.6a.787.787,0,0,0,.787.716H33.6a.787.787,0,0,0,.787-.716l1.506-16.6h.856a.787.787,0,1,0,0-1.574ZM24.938,2.362a.787.787,0,0,1,.787-.787h3.149a.787.787,0,0,1,.787.787v.787H24.938V2.362Zm7.941,18.106H21.721L20.294,4.723H34.31Z" fill="#ff3939"/>
    <path id="Path_883" data-name="Path 883" d="M138.853,148.248v0l-.787-11.021a.789.789,0,1,0-1.574.112l.787,11.021a.787.787,0,0,0,.787.731h.057A.787.787,0,0,0,138.853,148.248Z" transform="translate(-113.915 -130.195)" fill="#ff3939"/>
    <path id="Path_884" data-name="Path 884" d="M222.653,136.533a.787.787,0,0,0-.787.787v11.021a.787.787,0,0,0,1.574,0V137.32A.787.787,0,0,0,222.653,136.533Z" transform="translate(-195.354 -130.235)" fill="#ff3939"/>
    <path id="Path_885" data-name="Path 885" d="M291.719,136.491a.789.789,0,0,0-.843.731l-.787,11.021a.787.787,0,0,0,.727.843h.06a.787.787,0,0,0,.787-.731l.787-11.021A.789.789,0,0,0,291.719,136.491Z" transform="translate(-260.427 -130.194)" fill="#ff3939"/>
  </g>
</svg>
