<svg xmlns="http://www.w3.org/2000/svg" width="24" height="24" viewBox="0 0 24 24">
  <g id="friend_ID" data-name="friend ID" transform="translate(-44.189 -775.033)">
    <rect id="Rectangle_1583" data-name="Rectangle 1583" width="24" height="24" rx="5" transform="translate(44.189 775.033)" fill="#37DAD4"/>
    <g id="ico" transform="translate(-1328.696 656.413)">
      <path id="icons8-wallet" d="M5.535,4A1.543,1.543,0,0,0,4,5.535v8.189a1.535,1.535,0,0,0,1.535,1.535h8.7a1.023,1.023,0,0,0,1.024-1.024V7.071a1.023,1.023,0,0,0-1.024-1.024h-8.7a.512.512,0,0,1,0-1.024h7.677a.512.512,0,1,0,0-1.024Zm7.677,5.63a1.024,1.024,0,1,1-1.024,1.024A1.023,1.023,0,0,1,13.212,9.63Z" transform="translate(1375.255 120.727)" fill="#fff"/>
    </g>
  </g>
</svg>
